<svg width="15" height="15" viewBox="0 0 15 15" fill="none" xmlns="http://www.w3.org/2000/svg">
<path fill-rule="evenodd" clip-rule="evenodd" d="M4 2.5C4 2.36739 4.05268 2.24021 4.14645 2.14645C4.24021 2.05268 4.36739 2 4.5 2H10.5C10.6326 2 10.7598 2.05268 10.8536 2.14645C10.9473 2.24021 11 2.36739 11 2.5V12.5C11 12.6326 10.9473 12.7598 10.8536 12.8536C10.7598 12.9473 10.6326 13 10.5 13H4.5C4.36739 13 4.24021 12.9473 4.14645 12.8536C4.05268 12.7598 4 12.6326 4 12.5V2.5ZM4.5 1C4.10218 1 3.72064 1.15804 3.43934 1.43934C3.15804 1.72064 3 2.10218 3 2.5V12.5C3 12.8978 3.15804 13.2794 3.43934 13.5607C3.72064 13.842 4.10218 14 4.5 14H10.5C10.8978 14 11.2794 13.842 11.5607 13.5607C11.842 13.2794 12 12.8978 12 12.5V2.5C12 2.10218 11.842 1.72064 11.5607 1.43934C11.2794 1.15804 10.8978 1 10.5 1H4.5ZM6 11.65C5.90717 11.65 5.81815 11.6869 5.75251 11.7525C5.68687 11.8182 5.65 11.9072 5.65 12C5.65 12.0928 5.68687 12.1818 5.75251 12.2475C5.81815 12.3131 5.90717 12.35 6 12.35H9C9.09283 12.35 9.18185 12.3131 9.24749 12.2475C9.31312 12.1818 9.35 12.0928 9.35 12C9.35 11.9072 9.31312 11.8182 9.24749 11.7525C9.18185 11.6869 9.09283 11.65 9 11.65H6Z" fill="black"/>
</svg>
