<svg width="33" height="33" viewBox="0 0 33 33" fill="none" xmlns="http://www.w3.org/2000/svg">
<path d="M16.5014 0C12.0203 0 11.4578 0.0196349 9.69797 0.0996593C7.94139 0.180179 6.74234 0.458202 5.69328 0.866244C4.60792 1.28765 3.68739 1.85145 2.77033 2.76884C1.85244 3.68607 1.28864 4.6066 0.865914 5.69147C0.456717 6.74086 0.178364 7.9404 0.0993291 9.69615C0.0206247 11.4562 0 12.0188 0 16.5C0 20.9812 0.0197999 21.5419 0.0996593 23.3018C0.180509 25.0584 0.458532 26.2574 0.866243 27.3065C1.28798 28.3918 1.85178 29.3124 2.76917 30.2294C3.68607 31.1473 4.6066 31.7124 5.69114 32.1338C6.74102 32.5419 7.94024 32.8199 9.69648 32.9004C11.4565 32.9804 12.0185 33.0001 16.4994 33.0001C20.9809 33.0001 21.5416 32.9804 23.3015 32.9004C25.058 32.8199 26.2584 32.5419 27.3083 32.1338C28.3932 31.7124 29.3124 31.1473 30.2291 30.2294C31.147 29.3124 31.7106 28.3918 32.1335 27.307C32.5391 26.2574 32.8176 25.058 32.9001 23.3021C32.9791 21.5422 32.9998 20.9812 32.9998 16.5C32.9998 12.0188 32.9791 11.4565 32.9001 9.69648C32.8176 7.93991 32.5391 6.74102 32.1335 5.69196C31.7106 4.6066 31.147 3.68607 30.2291 2.76884C29.3114 1.85112 28.3935 1.28732 27.3073 0.866408C26.2554 0.458202 25.0557 0.180014 23.2991 0.0996593C21.5391 0.0196349 20.9788 0 16.4962 0H16.5014ZM15.0212 2.97344C15.4605 2.97278 15.9508 2.97344 16.5014 2.97344C20.907 2.97344 21.429 2.98928 23.1688 3.06832C24.7775 3.14191 25.6507 3.41069 26.2323 3.63657C27.0024 3.93555 27.5513 4.2931 28.1285 4.87076C28.706 5.44826 29.0634 5.9982 29.3632 6.76825C29.5891 7.34904 29.8582 8.22222 29.9314 9.83096C30.0105 11.5704 30.0276 12.0928 30.0276 16.4962C30.0276 20.8997 30.0105 21.4223 29.9314 23.1615C29.8578 24.7703 29.5891 25.6434 29.3632 26.2244C29.0642 26.9945 28.706 27.5428 28.1285 28.1199C27.551 28.6974 27.0027 29.0548 26.2323 29.3539C25.6514 29.5808 24.7775 29.8489 23.1688 29.9225C21.4294 30.0016 20.907 30.0187 16.5014 30.0187C12.0956 30.0187 11.5733 30.0016 9.83409 29.9225C8.22535 29.8483 7.35218 29.5795 6.77006 29.3536C6.00018 29.0545 5.45007 28.6971 4.87258 28.1196C4.29508 27.5421 3.9377 26.9935 3.63789 26.2231C3.41201 25.6421 3.1429 24.769 3.06964 23.1602C2.9906 21.4208 2.97476 20.8984 2.97476 16.4921C2.97476 12.086 2.9906 11.5662 3.06964 9.82683C3.14323 8.21809 3.41201 7.34492 3.63789 6.7633C3.93704 5.99325 4.29508 5.44331 4.87274 4.86581C5.45024 4.28832 6.00018 3.93077 6.77023 3.63113C7.35185 3.40425 8.22535 3.13613 9.83409 3.06221C11.3562 2.99341 11.9461 2.97278 15.0212 2.96932V2.97344ZM25.309 5.71308C24.2159 5.71308 23.329 6.59913 23.329 7.69241C23.329 8.78552 24.2159 9.67239 25.309 9.67239C26.4021 9.67239 27.289 8.78552 27.289 7.69241C27.289 6.59929 26.4021 5.71242 25.309 5.71242V5.71308ZM16.5014 8.02653C11.822 8.02653 8.02801 11.8205 8.02801 16.5C8.02801 21.1796 11.822 24.9717 16.5014 24.9717C21.1809 24.9717 24.9736 21.1796 24.9736 16.5C24.9736 11.8207 21.1806 8.02653 16.501 8.02653H16.5014ZM16.5014 11C19.5388 11 22.0014 13.4623 22.0014 16.5C22.0014 19.5375 19.5388 22.0001 16.5014 22.0001C13.4637 22.0001 11.0015 19.5375 11.0015 16.5C11.0015 13.4623 13.4637 11 16.5014 11Z" fill="white"/>
</svg>
