<svg width="56" height="63" viewBox="0 0 56 63" fill="none" xmlns="http://www.w3.org/2000/svg">
<path d="M54.0194 40.505L40.5107 34.0624L34.7984 31.3379C37.2931 29.7664 39.3194 27.3412 40.6452 24.42C41.7511 21.9846 42.3232 19.341 42.323 16.6664C42.323 15.0906 42.0729 13.5943 41.7244 12.1505C40.025 5.15412 34.5603 0 28 0C21.5639 0 16.182 4.97042 14.3774 11.7675C13.9608 13.3269 13.6744 14.9483 13.6744 16.6664C13.6744 19.6497 14.3714 22.4311 15.5557 24.8504C16.9247 27.6568 18.9545 29.9708 21.4251 31.4586L15.9543 34.0055L2.00733 40.4999C0.796204 41.0674 0 42.4335 0 43.9592V59.281C0 61.3346 1.4311 62.9991 3.19776 62.9991H23.912V51.2678C23.9149 51.1468 23.9503 51.0288 24.0147 50.9263L24.006 50.9211L27.3987 45.046L27.4074 45.0511C27.5281 44.8441 27.7429 44.6975 28 44.6975C28.2571 44.6975 28.4719 44.8433 28.5926 45.0511L28.5961 45.0485L28.6271 45.1029C28.6314 45.1115 28.6375 45.1184 28.6409 45.127L31.9888 50.9237L31.9845 50.9263C32.0488 51.0291 32.0843 51.1474 32.0871 51.2687V63H52.8014C54.568 63 56 61.3354 56 59.2819V43.9592C56.0026 42.4387 55.2193 41.0855 54.0194 40.505ZM31.9871 36.5765L31.9957 36.5817L28.6021 42.4568L28.5935 42.4516C28.5346 42.5575 28.4488 42.6459 28.3447 42.7078C28.2406 42.7698 28.122 42.8031 28.0009 42.8044C27.8797 42.8031 27.7611 42.7698 27.657 42.7078C27.553 42.6459 27.4671 42.5575 27.4082 42.4516L27.4039 42.4542L27.3694 42.3947C27.3668 42.3887 27.3617 42.3835 27.3591 42.3775L24.0112 36.5791L24.0147 36.5765C23.9503 36.4737 23.9148 36.3554 23.912 36.2341C23.912 35.8503 24.2234 35.5389 24.6073 35.5389H31.3927C31.7766 35.5389 32.088 35.8503 32.088 36.2341C32.0866 36.3554 32.0517 36.4739 31.9871 36.5765Z" fill="white"/>
</svg>
