<svg width="55" height="62" viewBox="0 0 55 62" fill="none" xmlns="http://www.w3.org/2000/svg">
<path d="M27.5 0C34.7935 0 41.7882 2.89731 46.9454 8.05456C52.1027 13.2118 55 20.2065 55 27.5C55 36.8928 49.8789 44.5806 44.4828 50.0958C41.7863 52.8211 38.8446 55.2922 35.695 57.4781L34.3933 58.3642L33.7822 58.7706L32.6303 59.5039L31.6036 60.1303L30.3325 60.8697C29.4693 61.361 28.4932 61.6194 27.5 61.6194C26.5068 61.6194 25.5307 61.361 24.6675 60.8697L23.3964 60.1303L21.8075 59.1525L21.2208 58.7706L19.9681 57.9364C16.5702 55.6366 13.4049 53.0106 10.5172 50.0958C5.12111 44.5775 0 36.8928 0 27.5C0 20.2065 2.89731 13.2118 8.05456 8.05456C13.2118 2.89731 20.2065 0 27.5 0ZM27.5 18.3333C26.2962 18.3333 25.1042 18.5704 23.9921 19.0311C22.8799 19.4918 21.8694 20.167 21.0182 21.0182C20.167 21.8694 19.4918 22.8799 19.0311 23.9921C18.5704 25.1042 18.3333 26.2962 18.3333 27.5C18.3333 28.7038 18.5704 29.8958 19.0311 31.0079C19.4918 32.1201 20.167 33.1306 21.0182 33.9818C21.8694 34.833 22.8799 35.5082 23.9921 35.9689C25.1042 36.4296 26.2962 36.6667 27.5 36.6667C29.9312 36.6667 32.2627 35.7009 33.9818 33.9818C35.7009 32.2627 36.6667 29.9312 36.6667 27.5C36.6667 25.0689 35.7009 22.7373 33.9818 21.0182C32.2627 19.2991 29.9312 18.3333 27.5 18.3333Z" fill="white"/>
</svg>
