<svg width="22" height="20" viewBox="0 0 22 20" fill="none" xmlns="http://www.w3.org/2000/svg">
<path d="M5.48253 0.929098C5.08504 0.0456636 4.66673 0.0278374 4.28873 0.0123444C3.9792 -0.00098294 3.62536 1.7025e-05 3.27186 1.7025e-05C2.91802 1.7025e-05 2.34311 0.133124 1.85716 0.663718C1.37071 1.19481 0 2.47823 0 5.08855C0 7.69904 1.90131 10.2217 2.16636 10.5761C2.43174 10.9298 5.83686 16.4579 11.2298 18.5846C15.7117 20.352 16.6238 20.0005 17.5966 19.9119C18.5695 19.8236 20.7358 18.6288 21.1778 17.3898C21.6201 16.1511 21.6201 15.0892 21.4875 14.8673C21.3549 14.6462 21.001 14.5135 20.4704 14.2483C19.9397 13.9829 17.3312 12.6993 16.8449 12.5222C16.3584 12.3453 16.0048 12.257 15.6509 12.7882C15.2971 13.3187 14.2811 14.5135 13.9714 14.8673C13.662 15.222 13.3523 15.2661 12.8219 15.0007C12.291 14.7345 10.5822 14.175 8.55497 12.3676C6.97768 10.9612 5.91283 9.22452 5.6033 8.69326C5.29378 8.16283 5.57015 7.8753 5.8362 7.61092C6.07459 7.37319 6.36696 6.99136 6.63251 6.68167C6.89705 6.37181 6.98535 6.15074 7.16227 5.7969C7.33935 5.44273 7.25073 5.13287 7.11829 4.86749C6.98535 4.60211 5.95431 1.97812 5.48253 0.929098Z" fill="white"/>
</svg>
