<svg width="59" height="59" viewBox="0 0 59 59" fill="none" xmlns="http://www.w3.org/2000/svg">
<path d="M44.25 7.375H51.625V14.75H44.25V7.375ZM7.375 25.8125H0V33.1875H11.0625V29.5H7.375V25.8125ZM25.8125 33.1875H33.1875V40.5625H25.8125V33.1875ZM11.0625 25.8125H18.4375V29.5H11.0625V25.8125ZM33.1875 44.25H25.8125V47.9375H29.5V51.625H33.1875V47.9375V44.25ZM22.125 25.8125V29.5H18.4375V33.1875H25.8125V25.8125H22.125ZM29.5 14.75H33.1875V22.125H29.5V14.75ZM33.1875 29.5V33.1875H40.5625V25.8125H29.5V29.5H33.1875ZM25.8125 22.125H29.5V25.8125H25.8125V22.125ZM33.1875 51.625H40.5625V59H33.1875V51.625ZM25.8125 51.625H29.5V59H25.8125V51.625ZM33.1875 40.5625H36.875V44.25H33.1875V40.5625ZM33.1875 11.0625V3.6875H29.5V0H25.8125V14.75H29.5V11.0625H33.1875ZM44.25 51.625H47.9375V59H44.25V51.625ZM44.25 44.25H51.625V47.9375H44.25V44.25ZM40.5625 47.9375H44.25V51.625H40.5625V47.9375ZM36.875 44.25H40.5625V47.9375H36.875V44.25ZM51.625 36.875V40.5625H55.3125V44.25H59V36.875H55.3125H51.625ZM55.3125 47.9375H51.625V59H59V51.625H55.3125V47.9375ZM36.875 36.875V40.5625H47.9375V33.1875H40.5625V36.875H36.875ZM44.25 25.8125V29.5H51.625V33.1875H59V25.8125H51.625H44.25Z" fill="white"/>
</svg>
