<svg width="67" height="75" viewBox="0 0 67 75" fill="none" xmlns="http://www.w3.org/2000/svg">
<path d="M12.9645 15H57.352C61.5395 15 63.65 17.2125 63.65 21.7125V53.2875C63.65 57.75 61.5395 60 57.352 60H12.9645C8.777 60 6.6665 57.75 6.6665 53.2875V21.7125C6.6665 17.2125 8.777 15 12.9645 15ZM35.1415 47.25L57.7205 26.5125C58.5245 25.7625 59.161 24.0375 58.156 22.5C57.1845 20.9625 55.409 20.925 54.2365 21.8625L35.1415 36.3375L16.08 21.8625C14.9075 20.925 13.132 20.9625 12.1605 22.5C11.1555 24.0375 11.792 25.7625 12.596 26.5125L35.1415 47.25Z" fill="white"/>
</svg>
